<svg width="960" height="720" viewBox="0 0 960 720" fill="none" xmlns="http://www.w3.org/2000/svg">
  <rect width="960" height="720" rx="28" fill="#F8F1E7"/>
  <rect x="52" y="52" width="856" height="616" rx="24" fill="#FFF7EE"/>
  <path d="M52 484H908V668H52V484Z" fill="#D9BEA1"/>
  <rect x="102" y="148" width="268" height="270" rx="28" fill="#F3E5D7"/>
  <rect x="140" y="418" width="190" height="74" rx="26" fill="#C98B57"/>
  <rect x="126" y="394" width="218" height="44" rx="22" fill="#DDA06A"/>
  <rect x="586" y="128" width="224" height="192" rx="24" fill="#F0E3D5"/>
  <ellipse cx="518" cy="570" rx="156" ry="34" fill="#D4B59A"/>
  <rect x="420" y="176" width="190" height="312" rx="30" fill="#181412"/>
  <rect x="438" y="198" width="152" height="192" rx="20" fill="#223038"/>
  <rect x="454" y="214" width="54" height="66" rx="12" fill="#F0A65E"/>
  <rect x="522" y="214" width="52" height="66" rx="12" fill="#58B9BE"/>
  <rect x="454" y="292" width="120" height="76" rx="14" fill="#F5E7D4"/>
  <rect x="438" y="414" width="152" height="54" rx="16" fill="#FBF4EC"/>
  <rect x="616" y="224" width="24" height="172" rx="12" fill="#D35B33"/>
  <circle cx="766" cy="548" r="48" fill="#E2CFB7"/>
  <path d="M766 506C788.091 506 806 523.909 806 546V596H726V546C726 523.909 743.909 506 766 506Z" fill="#C8822A"/>
  <circle cx="766" cy="484" r="22" fill="#D7B291"/>
</svg>
