<svg width="960" height="720" viewBox="0 0 960 720" fill="none" xmlns="http://www.w3.org/2000/svg">
  <rect width="960" height="720" rx="28" fill="#FBF5EE"/>
  <rect x="46" y="46" width="868" height="628" rx="24" fill="#FFF9F3"/>
  <path d="M46 472H914V674H46V472Z" fill="#E4D0BE"/>
  <rect x="108" y="122" width="228" height="290" rx="26" fill="#F2E7DA"/>
  <rect x="622" y="122" width="212" height="248" rx="24" fill="#EFE3D4"/>
  <rect x="176" y="420" width="104" height="84" rx="24" fill="#D8A26D"/>
  <rect x="158" y="398" width="140" height="42" rx="21" fill="#E6B985"/>
  <ellipse cx="514" cy="562" rx="146" ry="32" fill="#D6BCA4"/>
  <rect x="410" y="190" width="180" height="292" rx="28" fill="#181411"/>
  <rect x="428" y="212" width="144" height="182" rx="18" fill="#22313A"/>
  <rect x="444" y="228" width="50" height="62" rx="12" fill="#F0A75F"/>
  <rect x="506" y="228" width="50" height="62" rx="12" fill="#59BEC1"/>
  <rect x="444" y="302" width="112" height="74" rx="14" fill="#F6EAD8"/>
  <rect x="428" y="410" width="144" height="52" rx="16" fill="#FCF5EE"/>
  <rect x="600" y="236" width="24" height="160" rx="12" fill="#D55E35"/>
  <circle cx="778" cy="552" r="44" fill="#E0CFBC"/>
  <path d="M778 512C798.987 512 816 529.013 816 550V592H740V550C740 529.013 757.013 512 778 512Z" fill="#2B6870"/>
  <circle cx="778" cy="492" r="20" fill="#D8B79A"/>
</svg>
